<?xml version="1.0" encoding="utf-8"?>
<!-- Generator: Adobe Illustrator 21.0.0, SVG Export Plug-In . SVG Version: 6.00 Build 0)  -->
<svg version="1.1" id="Layer_1" xmlns="http://www.w3.org/2000/svg" xmlns:xlink="http://www.w3.org/1999/xlink" x="0px" y="0px"
	 viewBox="0 0 173 35" style="enable-background:new 0 0 173 35;" xml:space="preserve">
<style type="text/css">
	.st0{fill:url(#SVGID_1_);}
	.st1{font-family:'Overpass-Bold';}
	.st2{font-size:18px;}
</style>
<linearGradient id="SVGID_1_" gradientUnits="userSpaceOnUse" x1="231.896" y1="1037.5547" x2="231.896" y2="1069.72" gradientTransform="matrix(1 0 0 1 -213.5 -1036.5)">
	<stop  offset="0" style="stop-color:#60EFFF"/>
	<stop  offset="1" style="stop-color:#1F89C7"/>
</linearGradient>
<path class="st0" d="M36.8,18L18.4,0L0,18l7.3,10.4l5.6-1.3l5.5,7.7l5.5-7.7l5.5,1.3L36.8,18z M17.6,3.3l-2.4,22l-4.5-6.2L17.6,3.3z
	 M10.2,18.5l-2.8-3.9l9.7-11.8L10.2,18.5z M14.5,25.6L14.5,25.6l0.3,0.4l-1.5,0.3l-3.5-4.9l0.6-1.4L14.5,25.6z M18.4,3l2.4,23.3
	l-2.4,3.3L16,26.4L18.4,3z M22.3,25.6l4.2-5.7l0.7,1.5l-3.5,4.9L22,25.9L22.3,25.6L22.3,25.6z M21.5,25.4l-2.4-22l6.9,15.8
	L21.5,25.4z M19.7,2.8l9.7,11.8l-2.8,3.8L19.7,2.8z M7.6,27.6L1,18.1L14.1,5.3l-7.6,9.3l3.4,4.7l-1,2.2l3.6,5L7.6,27.6z M18.4,33.6
	l-4.7-6.7l1.5-0.4l3.2,4.4l3.2-4.4l1.6,0.4L18.4,33.6z M24.4,26.5l3.6-5l-1-2.2l3.4-4.6l-7.6-9.3l13.1,12.8l-6.7,9.5L24.4,26.5z"/>
<text transform="matrix(1 0 0 1 50 23)" class="st1 st2">PATTERNFLY</text>
</svg>
