<?xml version="1.0" encoding="utf-8"?>
<!-- Generator: Adobe Illustrator 19.1.0, SVG Export Plug-In . SVG Version: 6.00 Build 0)  -->
<svg version="1.1" id="Layer_1" xmlns="http://www.w3.org/2000/svg" xmlns:xlink="http://www.w3.org/1999/xlink" x="0px" y="0px"
	 viewBox="-171 203.2 448.3 206.8" style="enable-background:new -171 203.2 448.3 206.8;" xml:space="preserve">
<style type="text/css">
	.st0{fill:#FFFFFF;}
	.st1{fill:#A21D21;}
	.st2{fill:#E02633;}
	.st3{fill:#97101B;}
	.st4{fill:#BC1C29;}
	.st5{fill:#4C1211;}
	.st6{fill:#8A181A;}
</style>
<g>
	<path class="st0" d="M120.8,203.4L74,278.2l46.1,73.2H73.6l-22.7-35.6l-22.3,35.6H-19L26.8,278l-47.5-74.6h47.5l23.3,37l23.1-37
		C73.2,203.4,120.8,203.4,120.8,203.4z"/>
	<g>
		<path class="st1" d="M120.7,203.4l-46.8,74.8l46.1,73.2H73.5l-22.6-35.7l-22.4,35.7H-19L26.8,278l-47.6-74.6h47.5l23.3,37l23.1-37
			C73.1,203.4,120.7,203.4,120.7,203.4z"/>
	</g>
	<path class="st2" d="M-104.9,351.4c-9.3,0-17.9-1.2-25.8-3.6c-7.9-2.4-14.7-6.2-20.4-11.5c-5.7-5.3-10.2-12.1-13.4-20.4
		c-3.2-8.3-4.9-18.3-4.9-30v-82.3h41.8V287c0,9.2,1.9,16.3,5.6,21.5s9.6,7.8,17.6,7.8s22.8,0,22.8,0V203.6h41.8v147.8
		C-39.6,351.4-95.6,351.4-104.9,351.4z"/>
	<g>
		<path class="st3" d="M73.4,203.4h47.5l-139.8,148L73.4,203.4z"/>
	</g>
	<g>
		<path class="st1" d="M120.2,351.4l-140.8-148H27L120.2,351.4z"/>
	</g>
	<polygon class="st0" points="50.4,278.1 120.9,203.4 64.9,293.3 120.2,351.4 73.7,351.4 50.9,315.7 28.7,351.4 -18.9,351.4 
		36.4,292.9 -20.6,203.4 	"/>
	<polygon class="st4" points="28.7,351.4 -18.9,351.4 120.9,203.4 	"/>
	<polygon class="st2" points="73.5,351.4 36.5,293.1 -20.7,203.2 120.2,351.4 	"/>
	<path class="st2" d="M223.9,259.7c-1.2-4.9-3.1-8.9-5.8-12c-2.7-3.1-6.2-5.4-10.6-6.9s-9.7-2.2-16-2.2h-10.1v77.7h8.9
		c6.3,0,11.8-0.7,16.3-2s8.2-3.5,11.1-6.5s5-7,6.2-12c1.3-5,1.9-11.2,1.9-18.5C225.7,270.5,225.1,264.7,223.9,259.7z M262.6,311.8
		c-3.4,9.5-8.4,17.2-15.2,23c-6.8,5.8-15.1,10.1-25,12.7c-9.9,2.6-21.4,3.9-34.5,3.9H140V203.6h51.7c11.5,0,22,1.2,31.5,3.6
		c9.4,2.4,17.4,6.4,24,12.1c6.5,5.7,11.6,13.2,15.2,22.5c3.6,9.3,5.4,20.9,5.4,34.8C267.8,290.5,266,302.3,262.6,311.8z"/>
	<g>
		<path class="st2" d="M-168.2,404.2V383h13.7v3.1h-10.6v5.2h6.1v3.1h-6.1v6.7h11v3.1H-168.2L-168.2,404.2z"/>
		<path class="st2" d="M-130.9,404.2l-2.4-4.1c-0.2-0.3-0.4-0.7-0.6-1.1c-0.2-0.4-0.5-0.8-0.7-1.2c-0.2-0.4-0.4-0.8-0.6-1.1
			s-0.3-0.6-0.4-0.8c-0.1,0.2-0.2,0.5-0.4,0.8c-0.2,0.3-0.4,0.7-0.6,1.1s-0.5,0.8-0.7,1.2c-0.2,0.4-0.5,0.8-0.7,1.1l-2.4,4.1h-3.7
			l6.6-11l-6.2-10.3h3.8l1.9,3.4c0.2,0.3,0.4,0.7,0.6,1.1s0.5,0.8,0.7,1.2c0.2,0.4,0.4,0.8,0.6,1.1c0.2,0.4,0.3,0.6,0.4,0.8
			c0.1-0.2,0.2-0.5,0.4-0.8c0.2-0.3,0.4-0.7,0.6-1.1c0.2-0.4,0.4-0.8,0.7-1.2c0.2-0.4,0.5-0.8,0.7-1.1l2-3.4h3.7l-6.1,10.3l6.6,11
			H-130.9z"/>
		<path class="st2" d="M-101.5,392.5c-0.3,0.8-0.8,1.5-1.5,2.1c-0.6,0.6-1.4,1-2.2,1.3c-0.9,0.3-1.8,0.4-2.8,0.4h-5.5v7.9h-3.2V383
			h8.9c1,0,1.9,0.1,2.7,0.4c0.8,0.3,1.6,0.7,2.2,1.3c0.6,0.6,1.1,1.2,1.4,2.1c0.3,0.8,0.5,1.8,0.5,2.9
			C-101,390.8-101.2,391.6-101.5,392.5z M-105.2,386.9c-0.7-0.6-1.5-0.9-2.6-0.9h-5.7v7.3h5.7c1.2,0,2.1-0.3,2.7-1
			c0.6-0.6,0.9-1.5,0.9-2.7C-104.2,388.4-104.6,387.5-105.2,386.9z"/>
		<path class="st2" d="M-90.6,404.2V383H-77v3.1h-10.5v5.2h6.1v3.1h-6.1v6.7h11v3.1H-90.6L-90.6,404.2z"/>
		<path class="st2" d="M-51,393.4c-0.8,1-2,1.7-3.4,2.1l4.3,8.7h-3.7l-4.2-8.4h-4.8v8.4H-66V383h9.3c0.9,0,1.8,0.1,2.6,0.4
			s1.5,0.6,2.2,1.2c0.6,0.5,1.1,1.2,1.5,2c0.4,0.8,0.5,1.7,0.5,2.8C-49.8,391-50.2,392.4-51,393.4z M-54,386.8
			c-0.7-0.6-1.5-0.9-2.6-0.9h-6.2v6.8h6.2c1.1,0,1.9-0.3,2.6-0.8c0.7-0.6,1-1.4,1-2.6C-53,388.3-53.3,387.4-54,386.8z"/>
		<path class="st2" d="M-38.4,404.2V383h3.2v21.2H-38.4z"/>
		<path class="st2" d="M-23,404.2V383h13.7v3.1h-10.5v5.2h6.1v3.1h-6.1v6.7h11v3.1H-23L-23,404.2z"/>
		<path class="st2" d="M14.8,404.2l-8.5-13.3c-0.3-0.4-0.6-0.9-0.9-1.4s-0.6-0.9-0.7-1.2c0,0.2,0,0.5,0,0.9c0,0.4,0,0.9,0,1.4
			s0,1,0,1.5s0,0.8,0,1.2v11H1.6v-21.2h3.2l8.1,13c0.1,0.2,0.3,0.5,0.5,0.8s0.3,0.6,0.5,0.9s0.3,0.6,0.5,0.8
			c0.1,0.2,0.3,0.4,0.3,0.6c0-0.2,0-0.5,0-0.9c0-0.4,0-0.9,0-1.4s0-1,0-1.5s0-0.9,0-1.2v-11h3.1v21H14.8z"/>
		<path class="st2" d="M42.2,403.5c-1.2,0.7-2.7,1-4.3,1c-1.4,0-2.6-0.3-3.7-0.8c-1.1-0.5-2-1.3-2.8-2.3s-1.4-2.1-1.8-3.5
			c-0.4-1.3-0.6-2.8-0.6-4.4c0-1.6,0.2-3.1,0.6-4.4c0.4-1.3,1-2.5,1.8-3.5s1.7-1.7,2.8-2.3c1.1-0.5,2.3-0.8,3.7-0.8
			c1.7,0,3.2,0.3,4.4,1s2.1,1.7,2.9,3l-2.8,1.8c-0.5-0.9-1.1-1.5-1.8-1.9c-0.6-0.4-1.5-0.6-2.6-0.6c-1.9,0-3.3,0.7-4.2,2.1
			c-0.9,1.4-1.5,3.3-1.5,5.7s0.5,4.3,1.5,5.7c1,1.4,2.4,2.1,4.2,2.1c1.1,0,2-0.2,2.8-0.7c0.7-0.4,1.4-1.1,1.9-2l2.6,1.8
			C44.5,401.8,43.5,402.8,42.2,403.5z"/>
		<path class="st2" d="M55.9,404.2V383h13.7v3.1H59v5.2h6.1v3.1H59v6.7h11v3.1H55.9L55.9,404.2z"/>
		<path class="st2" d="M112.2,404.2V393c0-0.3,0-0.7,0-1c0-0.4,0-0.7,0-1.1s0-0.7,0-1s0-0.5,0-0.7c-0.1,0.3-0.3,0.8-0.6,1.4
			c-0.3,0.7-0.5,1.3-0.8,1.9l-5.1,12l-5.1-12c-0.3-0.6-0.5-1.2-0.8-1.9c-0.3-0.7-0.5-1.1-0.6-1.4c0,0.2,0,0.4,0,0.7s0,0.6,0,1
			s0,0.7,0,1.1c0,0.4,0,0.7,0,1v11.2h-3V383h3.3l4.8,11.3c0.3,0.6,0.5,1.3,0.8,1.9c0.3,0.7,0.5,1.3,0.6,1.7c0.2-0.4,0.4-1,0.6-1.7
			c0.3-0.7,0.5-1.3,0.8-2l4.7-11.3h3.4v21.3H112.2z"/>
		<path class="st2" d="M141.2,404.2l-1.8-5h-8.5l-1.8,5h-3.3l7.6-21.2h3.4l7.7,21.2H141.2z M136.7,391.4c-0.1-0.4-0.3-0.8-0.4-1.3
			c-0.2-0.5-0.3-0.9-0.5-1.4s-0.3-0.9-0.4-1.3s-0.2-0.7-0.3-0.9c-0.1,0.2-0.2,0.5-0.3,0.9c-0.1,0.4-0.3,0.8-0.4,1.3
			s-0.3,0.9-0.4,1.4s-0.3,0.9-0.4,1.3l-1.7,4.9h6.6L136.7,391.4z"/>
		<path class="st2" d="M160.5,386.1v18.1h-3.2v-18.1h-6.2V383h15.5v3.1H160.5z"/>
		<path class="st2" d="M185.8,386.1v18.1h-3.2v-18.1h-6.2V383H192v3.1H185.8z"/>
		<path class="st2" d="M202.4,404.2V383h13.7v3.1h-10.5v5.2h6.1v3.1h-6.1v6.7h11v3.1H202.4L202.4,404.2z"/>
		<path class="st2" d="M242,393.4c-0.8,1-2,1.7-3.4,2.1l4.3,8.7h-3.7l-4.2-8.4h-4.8v8.4H227V383h9.3c0.9,0,1.8,0.1,2.6,0.4
			s1.5,0.6,2.2,1.2c0.6,0.5,1.1,1.2,1.5,2c0.4,0.8,0.5,1.7,0.5,2.8C243.3,391,242.9,392.4,242,393.4z M239.1,386.8
			c-0.7-0.6-1.5-0.9-2.6-0.9h-6.2v6.8h6.2c1.1,0,1.9-0.3,2.6-0.8c0.7-0.6,1-1.4,1-2.6C240.1,388.3,239.7,387.4,239.1,386.8z"/>
		<path class="st2" d="M268,400.7c-0.3,0.8-0.8,1.5-1.4,2c-0.6,0.6-1.5,1-2.4,1.3s-2.2,0.5-3.5,0.5c-1.6,0-3-0.3-4.3-0.9
			s-2.4-1.5-3.3-2.5l2.3-2.2c0.7,0.8,1.6,1.4,2.5,1.8s2,0.7,3,0.7c2.9,0,4.4-1,4.4-3.1c0-0.4-0.1-0.8-0.2-1.1
			c-0.2-0.3-0.4-0.6-0.8-0.9s-0.9-0.5-1.5-0.8c-0.6-0.2-1.4-0.5-2.2-0.8c-1.1-0.3-2.1-0.7-2.9-1c-0.8-0.3-1.5-0.7-2.1-1.2
			c-0.5-0.5-1-1-1.2-1.7c-0.2-0.7-0.4-1.4-0.4-2.4c0-0.9,0.2-1.7,0.5-2.5c0.4-0.7,0.9-1.4,1.5-1.9s1.4-0.9,2.2-1.2
			c0.9-0.3,1.8-0.4,2.7-0.4c1.5,0,2.7,0.3,3.9,0.8c1.1,0.5,2.1,1.2,3.1,2.1l-2.2,2.3c-0.7-0.7-1.4-1.2-2.2-1.5
			c-0.8-0.3-1.7-0.5-2.8-0.5c-1.3,0-2.2,0.3-2.7,0.8s-0.8,1.1-0.8,1.9c0,0.4,0.1,0.7,0.2,1c0.1,0.3,0.4,0.6,0.7,0.8s0.8,0.5,1.4,0.7
			c0.6,0.2,1.4,0.5,2.3,0.8c1.1,0.3,2,0.7,2.8,1s1.6,0.8,2.1,1.2c0.5,0.4,1,1.1,1.4,1.7c0.3,0.7,0.5,1.5,0.5,2.4
			S268.3,399.9,268,400.7z"/>
	</g>
	<polygon class="st5" points="50.2,240.5 64.5,263.1 50.4,278.1 36.2,263.1 	"/>
	<polygon class="st6" points="50.9,315.7 64.9,293.3 50.4,278.1 36.4,292.9 	"/>
</g>
</svg>
